<svg xmlns="http://www.w3.org/2000/svg" xmlns:xlink="http://www.w3.org/1999/xlink" width="500" zoomAndPan="magnify" viewBox="0 0 375 374.999991" height="500" preserveAspectRatio="xMidYMid meet" version="1.0"><defs><clipPath id="953558f743"><path d="M 0 24.546875 L 375 24.546875 L 375 350.796875 L 0 350.796875 Z M 0 24.546875 " clip-rule="nonzero"/></clipPath></defs><g clip-path="url(#953558f743)"><path fill="#ea7928" d="M 374.480469 34.359375 C 374.542969 34.324219 374.597656 34.285156 374.652344 34.246094 L 191.957031 347.980469 C 190.921875 349.761719 189.023438 350.824219 187.015625 350.824219 C 186.65625 350.824219 186.292969 350.789062 185.929688 350.71875 C 183.542969 350.257812 181.707031 348.335938 181.351562 345.929688 L 154.5 163.363281 Z M 6.503906 24.546875 C 4.082031 24.546875 1.917969 26.074219 1.109375 28.363281 C 0.300781 30.652344 1.019531 33.203125 2.90625 34.730469 L 149.21875 153.183594 L 368.574219 24.546875 Z M 6.503906 24.546875 " fill-opacity="1" fill-rule="nonzero"/></g></svg>