<?xml version="1.0" standalone="no"?>
<!DOCTYPE svg PUBLIC "-//W3C//DTD SVG 20010904//EN"
 "http://www.w3.org/TR/2001/REC-SVG-20010904/DTD/svg10.dtd">
<svg version="1.0" xmlns="http://www.w3.org/2000/svg"
 width="500.000000pt" height="500.000000pt" viewBox="0 0 500.000000 500.000000"
 preserveAspectRatio="xMidYMid meet">

<g transform="translate(0.000000,500.000000) scale(0.100000,-0.100000)"
fill="#000000" stroke="none">
<path d="M2865 3650 c-60 -10 -204 -32 -320 -50 -300 -45 -560 -84 -790 -120
-110 -17 -384 -58 -610 -92 -226 -33 -416 -65 -422 -71 -20 -15 -15 -67 11
-122 42 -89 32 -85 186 -64 74 10 141 16 148 14 9 -3 12 -33 10 -117 l-3 -113
-42 -3 c-24 -2 -43 -7 -43 -12 0 -5 46 -43 103 -84 72 -53 103 -71 105 -61 2
8 4 15 5 16 8 4 364 35 370 32 4 -2 7 -58 7 -124 l0 -119 -40 0 c-22 0 -40 -3
-40 -7 0 -5 53 -41 118 -81 l117 -73 75 5 c41 3 135 9 208 12 l132 7 0 -54 c0
-48 4 -57 36 -90 l37 -37 33 16 34 16 0 77 0 78 43 5 c23 3 98 8 167 11 69 3
160 8 203 11 l77 7 0 -146 0 -146 -132 -3 -133 -3 52 -51 c79 -78 97 -84 613
-190 118 -24 221 -44 228 -44 9 0 12 93 12 430 0 237 2 430 4 430 5 0 336 -80
359 -86 16 -5 17 -33 17 -415 l0 -409 103 0 c56 0 112 3 125 6 l22 6 0 677 0
677 -57 28 c-32 16 -255 123 -496 237 -490 234 -442 219 -632 189z m-85 -425
c0 -144 0 -145 -22 -146 -13 0 -120 -11 -238 -23 -118 -13 -218 -21 -222 -19
-5 2 -8 63 -8 134 0 95 3 131 13 134 6 2 113 17 237 33 124 16 228 30 233 31
4 0 7 -64 7 -144z m-630 -69 l0 -135 -42 -5 c-80 -11 -348 -36 -378 -36 l-30
0 0 124 0 125 43 6 c23 3 121 17 217 29 96 13 178 24 183 25 4 0 7 -59 7 -133z
m-570 -71 c0 -123 0 -125 -22 -125 -13 0 -86 -7 -163 -15 -77 -8 -152 -15
-167 -15 l-28 0 0 115 c0 83 3 117 13 120 16 6 293 42 335 44 l32 1 0 -125z
m1200 -314 l0 -140 -42 -5 c-24 -3 -101 -8 -173 -11 -71 -3 -163 -8 -202 -11
l-73 -6 0 136 c0 123 2 136 18 137 9 0 98 9 197 19 99 10 201 18 228 19 l47 1
0 -139z m-630 -44 l0 -134 -107 -6 c-60 -4 -161 -9 -225 -13 l-118 -7 0 127 0
126 28 1 c15 0 106 8 202 18 96 10 185 19 198 20 22 1 22 0 22 -132z"/>
</g>
</svg>
