<svg xmlns="http://www.w3.org/2000/svg" xmlns:xlink="http://www.w3.org/1999/xlink" width="500" zoomAndPan="magnify" viewBox="0 0 375 374.999991" height="500" preserveAspectRatio="xMidYMid meet" version="1.0"><path fill="#ea7928" d="M 350.214844 210.554688 C 351.007812 204.550781 362.078125 195.664062 362.4375 189.613281 C 363.082031 178.617188 348.207031 157.101562 337.992188 152.96875 C 321.769531 146.410156 239.320312 149.480469 239.320312 149.480469 C 231.265625 135.402344 253.679688 100.648438 259.84375 85.640625 C 268.894531 63.652344 267.367188 34.472656 255.921875 19.484375 C 241.945312 1.167969 216.28125 -0.0507812 215.753906 8.144531 C 211.929688 67.582031 200.542969 84.070312 185.296875 95.820312 C 176.140625 102.882812 168.132812 109.058594 163.910156 119.816406 C 137.921875 185.9375 118.667969 201.246094 107.660156 201.246094 L 100.324219 201.246094 L 100.324219 351.535156 L 177.347656 365.851562 C 177.347656 365.851562 272.96875 374.894531 303.078125 365.851562 C 312.550781 363.011719 328.902344 348.796875 332.761719 339.671875 C 334.972656 334.4375 331.910156 322.046875 334.515625 316.992188 C 338.367188 309.5 354.617188 300.121094 354.601562 289.945312 C 354.589844 282.691406 346.125 270.132812 346.742188 262.894531 C 347.355469 255.652344 362.472656 245.722656 362.457031 238.46875 C 362.425781 230.859375 349.214844 218.105469 350.214844 210.554688 Z M 350.214844 210.554688 " fill-opacity="1" fill-rule="nonzero"/><path fill="#ea7928" d="M 85.652344 347.871094 C 85.652344 355.96875 79.082031 362.53125 70.980469 362.53125 L 26.957031 362.53125 C 18.851562 362.53125 12.28125 355.96875 12.28125 347.871094 L 12.28125 208.578125 C 12.28125 200.480469 18.851562 193.914062 26.957031 193.914062 L 70.980469 193.914062 C 79.082031 193.914062 85.652344 200.480469 85.652344 208.578125 Z M 85.652344 347.871094 " fill-opacity="1" fill-rule="nonzero"/></svg>